<?xml version="1.0" encoding="UTF-8"?><svg id="Layer_1" xmlns="http://www.w3.org/2000/svg" viewBox="0 0 1651.92 1207.47"><path d="M1215.54,1c.91,0,1.81.54,2.16,1.51l289.85,802.21,143.22,395.35c.57,1.57-.65,3.08-2.15,3.08-.29,0-.6-.06-.9-.19l-559.03-235.57c-.29-.12-.59-.18-.89-.18-.71,0-1.41.33-1.85.94l-65.45,89.21c-.48.65-1.16.94-1.82.94-1.24,0-2.46-1.01-2.31-2.52l26.84-280.71c.12-1.23,1.16-2.08,2.28-2.08.34,0,.69.08,1.03.25l67.39,33.97,256.46,133.79c.37.19.74.28,1.08.28,1.77,0,3.08-2.18,1.73-3.78l-148.35-176.03-101.48-117.59c-5.21-6.04-10.82-10.32-14.56-17.79-.24-.48-.3-1.03-.19-1.55l68.69-310.42c.35-1.6-.93-2.8-2.27-2.8-.61,0-1.23.25-1.72.82l-106.31,125.23-142.25,172.56-326.17,408.78c-.45.57-1.12.86-1.79.86-.48,0-.97-.15-1.39-.47l-58.54-44.51c-.41-.31-.9-.47-1.39-.47-.31,0-.62.06-.92.19L4.22,1206.27c-.31.14-.63.2-.93.2-1.49,0-2.72-1.5-2.15-3.08l129.35-358.01L434.49,3.02c.35-.97,1.25-1.52,2.16-1.52.61,0,1.22.24,1.68.74l356.34,387.51c.81.88.81,2.25-.02,3.12l-60.23,63.87-72.58,74.86c-.45.47-1.05.7-1.65.7-.66,0-1.32-.28-1.77-.84l-179.88-218.68c-.49-.59-1.12-.85-1.74-.85-1.34,0-2.62,1.19-2.27,2.79l66.12,303.13c.15.69-.02,1.4-.47,1.94l-204.61,248.64-63.6,79.56c-.24.3-.32.68-.34,1.06-.09,1.13-.88,2.61-1.94,4.11-1.47,1.23-3.11,2.84-4.01,3.79-1.92,2.02-2.51,2.83-2.33,2.83.38,0,4.01-3.35,6.34-6.62.81-.68,1.58-1.24,2.13-1.51.09-.04.19-.06.29-.06.3,0,.68.16,1.11.41.34.2.73.3,1.12.3.45,0,.89-.13,1.28-.39l124.12-82.25,419.04-293.1c1.84-1.29.93-4.17-1.32-4.17h0l-128.57.07h0c-1.99,0-3.04-2.36-1.7-3.83l24.9-27.46,168.72-180.64L1213.86,1.73c.46-.5,1.07-.73,1.67-.73M1215.54,0c-.92,0-1.78.37-2.41,1.05l-333.04,358.81-168.72,180.64-24.91,27.47c-.89.98-1.11,2.34-.57,3.54.54,1.21,1.69,1.96,3.01,1.96l128.57-.07c.7,0,1.1.47,1.23.9.14.44.08,1.05-.49,1.45l-419.04,293.1-124.1,82.23c-.22.14-.47.22-.72.22-.22,0-.43-.06-.61-.16-.56-.33-1.03-.51-1.46-.54.2-.53.31-1.01.35-1.46.02-.26.06-.43.13-.51l63.6-79.56,204.6-248.63c.64-.78.89-1.8.67-2.79l-66.12-303.13c-.11-.51.06-.86.23-1.07.25-.31.66-.51,1.07-.51.26,0,.64.08.97.48l179.88,218.68c.63.76,1.56,1.2,2.54,1.2.9,0,1.74-.36,2.36-1l72.58-74.86,60.24-63.88c1.18-1.25,1.19-3.22.03-4.48L439.07,1.57c-.63-.69-1.49-1.07-2.42-1.07-1.41,0-2.63.85-3.11,2.18L129.55,845.04.2,1203.05c-.37,1.02-.23,2.12.39,3,.62.89,1.63,1.42,2.7,1.42.45,0,.9-.09,1.33-.28l530.34-231.95c.16-.07.34-.11.52-.11.28,0,.56.09.78.26l58.54,44.51c.58.44,1.27.67,1.99.67,1.01,0,1.95-.45,2.58-1.24l326.17-408.78,142.24-172.55,106.3-125.22c.33-.39.7-.47.96-.47.4,0,.81.2,1.07.51.17.21.34.56.23,1.07l-68.69,310.42c-.17.75-.07,1.54.27,2.22,2.7,5.38,6.26,9.07,10.04,12.98,1.54,1.59,3.13,3.24,4.66,5.02l101.48,117.59,148.34,176.03c.46.55.32,1.08.2,1.35-.22.47-.69.79-1.17.79-.2,0-.41-.06-.62-.16l-256.46-133.79-67.4-33.97c-.47-.24-.97-.35-1.48-.35-1.71,0-3.12,1.28-3.28,2.98l-26.84,280.71c-.09.94.2,1.84.82,2.51.63.7,1.54,1.1,2.49,1.1,1.04,0,2-.49,2.63-1.35l65.45-89.21c.24-.33.63-.53,1.04-.53.17,0,.34.03.5.1l559.03,235.57c.42.18.85.26,1.29.26,1.07,0,2.07-.53,2.7-1.42.62-.88.76-1.98.39-3l-143.22-395.35L1218.64,2.17c-.48-1.32-1.7-2.17-3.1-2.17h0Z"/></svg>